<?xml version="1.0" encoding="utf-8" ?><svg xmlns="http://www.w3.org/2000/svg" xmlns:xlink="http://www.w3.org/1999/xlink" width="512" height="512" viewBox="0 0 512 512"><path d="M249.281 51.362C296.608 49.7144 343.03 64.6196 380.552 93.5112C423.449 126.578 451.611 175.198 458.95 228.861C466.043 283.161 451.215 338.051 417.745 381.395C384.963 423.72 336.844 451.448 283.785 458.587L283.719 310.361C291.532 309.821 303.695 310.347 311.943 310.332L327.47 310.298C330.007 310.294 334.228 310.156 336.628 310.476C337.129 308.238 337.42 305.329 337.778 302.995L340.125 287.978L342.991 269.36C343.628 265.209 344.41 260.767 344.737 256.6C343.534 256.781 339.837 256.589 338.44 256.568C334.912 256.538 331.384 256.527 327.856 256.534L283.664 256.507C284.117 237.557 279.904 204.339 295.45 190.616C297.963 188.408 300.948 186.806 304.177 185.933C310.361 184.315 322.841 184.758 329.368 184.701C333.644 184.663 341.357 184.512 345.529 184.787C345.329 179.24 345.467 173.029 345.465 167.416L345.48 138.009C341.851 137.442 338.211 136.946 334.562 136.52C329.74 136.452 324.514 135.737 319.654 135.553C295.198 134.611 266.587 135.678 247.781 153.709C219.983 180.359 226.195 222.082 225.131 256.505C208.783 256.589 190.88 256.891 174.612 256.484C174.71 257.84 174.56 260.518 174.54 261.998L174.505 272.129L174.551 310.244C189.088 310.774 203.804 310.156 218.361 310.337C220.66 310.365 222.968 310.378 225.266 310.327C224.912 339.198 225.32 368.85 225.307 397.781L225.239 436.113C225.223 443.266 225.061 451.031 225.298 458.143C223.707 457.695 221.818 457.518 220.159 457.238C170.593 448.855 125.008 421.267 94.0177 381.32C67.5449 347.178 52.5977 305.512 51.3311 262.328C47.6622 149.369 136.392 54.9226 249.281 51.362Z"/></svg>