<?xml version="1.0" encoding="utf-8"?>
<svg xmlns="http://www.w3.org/2000/svg" width="512" height="512" viewBox="0 0 512 512">
  <path fill="#FE3D00" d="M66.9004 156.409C79.2962 133.924 90.8527 117.837 109.582 100.071C150.304 62.0088 204.261 41.3231 259.991 42.4079C268.946 42.6376 276.815 43.0609 285.742 44.2761C317.681 48.8302 348.173 60.5612 374.928 78.5882C383.633 84.4375 394.341 92.6389 401.592 100.273C389.227 112.902 376.329 125.516 363.817 138.051L349.543 152.353C346.872 155.029 343.716 158.363 340.951 160.817C335.822 156.682 330.285 152.087 324.769 148.547C300.517 133.003 271.717 126.126 243.058 129.036C209.4 132.464 178.491 149.15 157.158 175.408C148.384 186.357 143.321 195.206 137.78 207.905C135.245 206.618 125.504 199.239 122.636 197.136L85.4045 169.812C81.3761 166.839 70.7116 158.48 66.9004 156.409Z"/>
  <path fill="#1776D2" d="M255.904 213.253L409.528 213.254C412.593 213.254 415.928 213.382 418.963 213.254C434.478 212.6 449.959 214.435 465.404 213.977C467.648 227.807 469.243 239.489 469.471 253.644C470.057 299.475 455.936 344.287 429.182 381.502C422.079 391.345 412.504 402.466 403.485 410.568C402.628 411.337 400.268 413.376 399.381 413.919C395.375 410.016 387.434 403.755 382.851 399.875L350.014 372.103C344.917 367.833 337.854 362.355 333.31 357.722C355.475 339.242 365.52 325.653 376.47 298.778C373.431 298.991 367.311 298.689 364.049 298.645C356.843 298.57 349.637 298.55 342.431 298.585L255.962 298.792C256.099 281.841 256.12 264.89 256.026 247.939C256.023 236.635 256.232 224.484 255.904 213.253Z"/>
  <path fill="#4CAF4E" d="M135.782 299.183C138.063 304.835 140.019 309.761 142.873 315.157C156.517 341.217 178.697 361.802 205.702 373.465C237.95 387.163 272.78 387.177 305.129 373.887C316.334 369.283 323.352 364.572 333.31 357.722C337.854 362.355 344.917 367.833 350.014 372.103L382.851 399.875C387.434 403.755 395.375 410.016 399.381 413.919C395.105 417.474 391.302 420.92 386.828 424.433C376.436 432.565 365.319 439.724 353.617 445.82C304.876 471.664 244.739 475.913 192.23 459.689C144.68 444.598 103.804 413.545 76.5164 371.783C72.6792 365.915 69.065 359.25 65.7892 353.05C71.999 347.849 80.9783 341.42 87.5743 336.346L135.782 299.183Z"/>
  <path fill="#FEC105" d="M66.9004 156.409C70.7116 158.48 81.3761 166.839 85.4045 169.812L122.636 197.136C125.504 199.239 135.245 206.618 137.78 207.905C125.98 237.064 125.269 269.536 135.782 299.183L87.5743 336.346C80.9783 341.42 71.999 347.849 65.7892 353.05C60.9136 344.747 55.4452 329.982 52.5141 320.923C37.4793 273.896 39.1417 223.119 57.2203 177.175C59.9929 170.141 63.46 163.135 66.9004 156.409Z"/>
</svg>