<?xml version="1.0" encoding="utf-8"?>
<svg width="800px" height="800px" viewBox="0 0 24 24" fill="none" xmlns="http://www.w3.org/2000/svg">
  <path d="M 23.998 12.08 C 23.998 5.409 18.626 0.002 12 0.002 C 5.374 0.002 0.002 5.409 0.002 12.08 C 0.002 18.108 4.39 23.105 10.125 24.011 L 10.125 15.571 L 7.08 15.571 L 7.08 12.08 L 10.125 12.08 L 10.125 9.419 C 10.125 6.393 11.916 4.72 14.657 4.72 C 15.97 4.72 17.343 4.956 17.343 4.956 L 17.343 7.928 L 15.83 7.928 C 14.339 7.928 13.874 8.86 13.874 9.814 L 13.874 12.08 L 17.202 12.08 L 16.67 15.571 L 13.874 15.571 L 13.874 24.011 C 19.61 23.105 23.998 18.108 23.998 12.08 Z" fill="#000000" style=""/>
</svg>