<?xml version="1.0" encoding="utf-8"?>
<svg width="800px" height="800px" viewBox="0 0 24 24" fill="none" xmlns="http://www.w3.org/2000/svg">
  <path fill-rule="evenodd" clip-rule="evenodd" d="M 12 18.545 C 15.618 18.545 18.55 15.61 18.55 11.989 C 18.55 8.368 15.618 5.432 12 5.432 C 8.382 5.432 5.45 8.368 5.45 11.989 C 5.45 15.61 8.382 18.545 12 18.545 Z M 12 16.36 C 14.412 16.36 16.368 14.403 16.368 11.989 C 16.368 9.575 14.412 7.617 12 7.617 C 9.588 7.617 7.632 9.575 7.632 11.989 C 7.632 14.403 9.588 16.36 12 16.36 Z" fill="#0F0F0F" style=""/>
  <path d="M 18.55 4.339 C 17.948 4.339 17.46 4.828 17.46 5.432 C 17.46 6.035 17.948 6.524 18.55 6.524 C 19.154 6.524 19.642 6.035 19.642 5.432 C 19.642 4.828 19.154 4.339 18.55 4.339 Z" fill="#0F0F0F" style=""/>
  <path fill-rule="evenodd" clip-rule="evenodd" d="M 0.704 3.547 C -0.01 4.95 -0.01 6.786 -0.01 10.459 L -0.01 13.518 C -0.01 17.191 -0.01 19.028 0.704 20.43 C 1.332 21.663 2.335 22.667 3.566 23.295 C 4.968 24.01 6.802 24.01 10.472 24.01 L 13.528 24.01 C 17.198 24.01 19.032 24.01 20.433 23.295 C 21.665 22.667 22.668 21.663 23.296 20.43 C 24.01 19.028 24.01 17.191 24.01 13.518 L 24.01 10.459 C 24.01 6.786 24.01 4.95 23.296 3.547 C 22.668 2.314 21.665 1.31 20.433 0.682 C 19.032 -0.032 17.198 -0.032 13.528 -0.032 L 10.472 -0.032 C 6.802 -0.032 4.968 -0.032 3.566 0.682 C 2.335 1.31 1.332 2.314 0.704 3.547 Z M 13.528 2.153 L 10.472 2.153 C 8.601 2.153 7.33 2.155 6.346 2.235 C 5.389 2.314 4.899 2.455 4.558 2.63 C 3.737 3.048 3.068 3.718 2.65 4.54 C 2.476 4.881 2.334 5.372 2.255 6.33 C 2.175 7.314 2.174 8.587 2.174 10.459 L 2.174 13.518 C 2.174 15.391 2.175 16.663 2.255 17.648 C 2.334 18.606 2.476 19.096 2.65 19.438 C 3.068 20.26 3.737 20.929 4.558 21.348 C 4.899 21.522 5.389 21.664 6.346 21.743 C 7.33 21.822 8.601 21.824 10.472 21.824 L 13.528 21.824 C 15.399 21.824 16.67 21.822 17.654 21.743 C 18.611 21.664 19.101 21.522 19.442 21.348 C 20.263 20.929 20.932 20.26 21.35 19.438 C 21.524 19.096 21.666 18.606 21.745 17.648 C 21.825 16.663 21.826 15.391 21.826 13.518 L 21.826 10.459 C 21.826 8.587 21.825 7.314 21.745 6.33 C 21.666 5.372 21.524 4.881 21.35 4.54 C 20.932 3.718 20.263 3.048 19.442 2.63 C 19.101 2.455 18.611 2.314 17.654 2.235 C 16.67 2.155 15.399 2.153 13.528 2.153 Z" fill="#0F0F0F" style=""/>
</svg>