<?xml version="1.0" encoding="utf-8"?>
<svg fill="#000000" width="800px" height="800px" viewBox="0 0 32 32" version="1.1" xmlns="http://www.w3.org/2000/svg">
  <title>reddit</title>
  <path d="M 12.394 21.314 C 12.154 21.315 11.96 21.509 11.96 21.749 C 11.96 21.869 12.008 21.977 12.086 22.056 C 13.101 22.819 14.385 23.278 15.774 23.278 C 15.865 23.278 15.955 23.276 16.046 23.271 L 16.033 23.271 C 16.119 23.276 16.22 23.278 16.321 23.278 C 17.701 23.278 18.976 22.818 19.996 22.043 L 19.982 22.054 C 20.063 21.968 20.114 21.852 20.114 21.723 C 20.114 21.615 20.079 21.516 20.019 21.436 L 20.02 21.437 C 19.941 21.358 19.831 21.31 19.71 21.31 C 19.59 21.31 19.481 21.358 19.401 21.437 C 18.548 22.05 17.483 22.416 16.332 22.416 C 16.234 22.416 16.136 22.413 16.038 22.409 L 16.052 22.41 C 15.965 22.415 15.863 22.418 15.76 22.418 C 14.613 22.418 13.551 22.051 12.688 21.427 L 12.702 21.438 C 12.624 21.36 12.515 21.311 12.397 21.311 C 12.396 21.311 12.394 21.311 12.393 21.311 L 12.394 21.314 Z M 19.68 16 C 18.762 16.001 18.016 16.745 18.016 17.664 C 18.016 18.583 18.762 19.328 19.681 19.328 C 20.602 19.328 21.347 18.583 21.347 17.664 C 21.345 16.745 20.601 16.001 19.68 16 Z M 12.348 16 C 13.266 16 14.012 16.745 14.012 17.663 C 14.012 18.58 13.266 19.326 12.348 19.326 C 11.43 19.326 10.684 18.58 10.684 17.663 C 10.684 16.745 11.429 16 12.348 16 Z M 22.694 6.336 C 23.603 6.342 24.337 7.08 24.337 7.989 C 24.337 8.903 23.597 9.642 22.683 9.642 C 21.8 9.642 21.077 8.949 21.03 8.079 L 21.03 8.074 L 17.568 7.345 L 16.501 12.336 C 18.832 12.388 20.984 13.121 22.773 14.344 L 22.733 14.318 C 23.138 13.914 23.698 13.664 24.317 13.664 C 24.326 13.664 24.335 13.664 24.344 13.664 L 24.343 13.664 C 25.634 13.665 26.68 14.71 26.681 16 C 26.674 16.938 26.135 17.748 25.349 18.143 L 25.335 18.15 C 25.37 18.353 25.391 18.589 25.391 18.829 C 25.391 18.834 25.391 18.838 25.391 18.844 L 25.391 18.843 C 25.391 22.431 21.218 25.329 16.053 25.329 C 10.889 25.329 6.716 22.431 6.716 18.843 C 6.716 18.842 6.716 18.839 6.716 18.837 C 6.716 18.588 6.738 18.344 6.777 18.105 L 6.774 18.131 C 5.952 17.758 5.389 16.943 5.389 15.998 C 5.389 14.708 6.436 13.663 7.726 13.663 C 7.726 13.663 7.727 13.663 7.727 13.663 C 8.353 13.669 8.918 13.916 9.337 14.316 L 9.336 14.315 C 11.108 13.091 13.295 12.353 15.656 12.335 L 15.66 12.335 L 16.841 6.764 C 16.871 6.655 16.937 6.563 17.025 6.503 L 17.027 6.502 C 17.095 6.463 17.176 6.439 17.262 6.439 C 17.291 6.439 17.319 6.443 17.347 6.447 L 17.344 6.447 L 21.218 7.268 C 21.482 6.712 22.039 6.335 22.685 6.335 C 22.688 6.335 22.692 6.335 22.695 6.335 L 22.694 6.335 L 22.694 6.336 Z M 16.015 0.016 C 16.015 0.016 16.015 0.016 16.015 0.016 C 7.18 0.016 0.016 7.173 0.016 16 C 0.016 24.827 7.18 31.984 16.015 31.984 C 24.851 31.984 32.013 24.827 32.013 16 C 32.013 11.586 30.224 7.59 27.327 4.698 C 24.432 1.805 20.433 0.016 16.015 0.016 Z" style=""/>
</svg>